<svg width="18" height="18" viewBox="0 0 18 18" fill="none" xmlns="http://www.w3.org/2000/svg">
<g clip-path="url(#clip0_2499_50436)">
<path d="M17.8246 9.20731C17.8246 8.59552 17.775 7.98041 17.6691 7.37854H9.18005V10.8443H14.0414C13.8396 11.962 13.1915 12.9508 12.2423 13.5792V15.8279H15.1426C16.8457 14.2604 17.8246 11.9455 17.8246 9.20731Z" fill="#4285F4"/>
<path d="M9.17995 18.0006C11.6073 18.0006 13.6543 17.2036 15.1458 15.8279L12.2455 13.5792C11.4386 14.1281 10.3969 14.439 9.18326 14.439C6.83529 14.439 4.84448 12.8549 4.13016 10.7252H1.13733V13.0434C2.66516 16.0826 5.77705 18.0006 9.17995 18.0006V18.0006Z" fill="#34A853"/>
<path d="M4.12696 10.7252C3.74996 9.60739 3.74996 8.39703 4.12696 7.27927V4.96106H1.13743C-0.139072 7.50414 -0.139072 10.5003 1.13743 13.0434L4.12696 10.7252V10.7252Z" fill="#FBBC04"/>
<path d="M9.17995 3.56225C10.4631 3.5424 11.7032 4.02523 12.6325 4.9115L15.202 2.34196C13.575 0.814129 11.4155 -0.0258495 9.17995 0.000606499C5.77705 0.000606499 2.66516 1.91867 1.13733 4.96111L4.12686 7.27931C4.83786 5.1463 6.83198 3.56225 9.17995 3.56225V3.56225Z" fill="#EA4335"/>
</g>
<defs>
<clipPath id="clip0_2499_50436">
<rect width="18" height="18" fill="white"/>
</clipPath>
</defs>
</svg>
